<svg xmlns="http://www.w3.org/2000/svg" width="160" height="160"><path fill="#b7b7b7" d="M150 70h10v20h-20v10h-20v10h-20v10H80v10H50v-10H40v-10H30v-10H20V80h10v10h10v10h10v10h30v-10h20V90h20V80h30Z"/><path fill="#56ad56" d="M50 40h30v10h10v10h10v10h20v10H90v10H60V80H50V70H40V60H30V50h20Z"/><path fill="#478e47" d="M20 60h20v10h10v10h10v10h30V80h30v10h-20v10H80v10H50v-10H40V90H30V80H20Z"/><path fill="#2a592a" d="M80 10h30v10h-10v10H80v10H50v10H30v10H20v10H10V60H0V50h20V40h20V30h20V20h20Z"/><path fill="#2a592a" d="M0 60h10v10h10v30h10v10h10v10h10v10h20v10H40v-10H30v-10H20v-10H10v-10H0Z"/><path fill="#478e47" d="M80 10h30v10h-10v10H80v10H60V20h20Z"/><path fill="#161005" d="M80 120h20v20H80v10H50v-10h20v-10h10Z"/><path fill="#d6d6d6" d="M20 80h10v10h10v10h10v10h10v20H50v-10H40v-10H30v-10H20Z"/><path fill="#161005" d="M140 90h20v20h-40v-10h20Z"/><path fill="#b7b7b7" d="M150 70h10v20h-20v10h-10V90h-10V80h30Z"/><path fill="#2a592a" d="M140 50h10v10h10v10h-10v10h-30V70h20ZM80 40h20v10h10v10h10v10h-20V60H90V50H80Z"/><path fill="#478e47" d="M100 20h20v10h-10v20h-10V40H80V30h20Z"/><path fill="#b7b7b7" d="M60 110h30v10H60Z"/><path fill="#2a592a" d="M90 80h30v10h-20v10H80V90h10Z"/><path fill="#1b361b" d="M0 60h10v40H0Z"/><path fill="#161005" d="M50 140h30v10H50Z"/><path fill="#478e47" d="M130 50h10v20h-20V60h10Zm-10-10h20v10h-20Z"/><path fill="#2a592a" d="M80 10h30v10H80ZM50 130h20v10H50Z"/><path fill="#161005" d="M100 120h20v10h-20Z"/><path fill="#1b361b" d="M80 120h20v10H80Zm20-10h20v10h-20Z"/><path fill="#2a592a" d="M120 100h20v10h-20Zm-60 0h20v10H60Z"/><path fill="#1b361b" d="M140 90h20v10h-20Z"/><path fill="#2a592a" d="M80 90h20v10H80Z"/><path fill="#fff" d="M150 70h10v20h-10Z"/><path fill="#56ad56" d="M80 30h20v10H80Z"/><path fill="#478e47" d="M60 30h20v10H60Z"/><path fill="#2a592a" d="M60 20h20v10H60Z"/><path fill="#1b361b" d="M70 130h10v10H70Z"/><path fill="#3d7a3d" d="M50 130h10v10H50Z"/><path fill="#161005" d="M40 130h10v10H40Z"/><path fill="#2a592a" d="M80 120h10v10H80Z"/><path fill="#999" d="M70 120h10v10H70Z"/><path fill="#b7b7b7" d="M60 120h10v10H60Z"/><path fill="#d6d6d6" d="M50 120h10v10H50Z"/><path fill="#3d7a3d" d="M40 120h10v10H40Z"/><path fill="#161005" d="M30 120h10v10H30Z"/><path fill="#2a592a" d="M100 110h10v10h-10Z"/><path fill="#999" d="M90 110h10v10H90Zm-30 0h10v10H60Z"/><path fill="#b7b7b7" d="M50 110h10v10H50Z"/><path fill="#d6d6d6" d="M40 110h10v10H40Z"/><path fill="#3d7a3d" d="M30 110h10v10H30Z"/><path fill="#161005" d="M20 110h10v10H20Z"/><path fill="#999" d="M110 100h10v10h-10Zm-30 0h10v10H80Z"/><path fill="#3d7a3d" d="M50 100h10v10H50Z"/><path fill="#b7b7b7" d="M40 100h10v10H40Z"/><path fill="#d6d6d6" d="M30 100h10v10H30Z"/><path fill="#3d7a3d" d="M20 100h10v10H20Z"/><path fill="#161005" d="M10 100h10v10H10Z"/><path fill="#2a592a" d="M140 90h10v10h-10Z"/><path fill="#999" d="M130 90h10v10h-10Zm-30 0h10v10h-10Z"/><path fill="#3d7a3d" d="M70 90h10v10H70Z"/><path fill="#478e47" d="M60 90h10v10H60Z"/><path fill="#56ad56" d="M50 90h10v10H50Z"/><path fill="#3d7a3d" d="M40 90h10v10H40Z"/><path fill="#b7b7b7" d="M30 90h10v10H30Z"/><path fill="#3d7a3d" d="M10 90h10v10H10Z"/><path fill="#161005" d="M0 90h10v10H0Z"/><path fill="#999" d="M140 80h10v10h-10Zm-20 0h10v10h-10Z"/><path fill="#3d7a3d" d="M90 80h10v10H90Z"/><path fill="#478e47" d="M50 80h10v10H50Z"/><path fill="#56ad56" d="M40 80h10v10H40Z"/><path fill="#3d7a3d" d="M30 80h10v10H30Z"/><path fill="#b7b7b7" d="M20 80h10v10H20Z"/><path fill="#5b5b5b" d="M140 70h10v10h-10Z"/><path fill="#478e47" d="M110 70h10v10h-10Z"/><path fill="#2a592a" d="M70 70h10v10H70Z"/><path fill="#478e47" d="M40 70h10v10H40Z"/><path fill="#56ad56" d="M30 70h10v10H30Z"/><path fill="#3d7a3d" d="M20 70h10v10H20Z"/><path fill="#1b361b" d="M150 60h10v10h-10Z"/><path fill="#56ad56" d="M120 60h10v10h-10Z"/><path fill="#2a592a" d="M60 60h10v10H60Z"/><path fill="#56ad56" d="M20 60h10v10H20Z"/><path fill="#3d7a3d" d="M10 60h10v10H10Z"/><path fill="#1b361b" d="M140 50h10v10h-10Z"/><path fill="#56ad56" d="M130 50h10v10h-10Zm-20 0h10v10h-10Z"/><path fill="#2a592a" d="M50 50h10v10H50Z"/><path fill="#3d7a3d" d="M20 50h10v10H20Z"/><path fill="#1b361b" d="M130 40h10v10h-10Z"/><path fill="#56ad56" d="M120 40h10v10h-10Zm-20 0h10v10h-10Z"/><path fill="#3d7a3d" d="M40 40h10v10H40Z"/><path fill="#1b361b" d="M120 30h10v10h-10Z"/><path fill="#56ad56" d="M110 30h10v10h-10Z"/><path fill="#3d7a3d" d="M60 30h10v10H60Z"/><path fill="#1b361b" d="M110 20h10v10h-10Z"/><path fill="#56ad56" d="M100 20h10v10h-10Z"/><path fill="#3d7a3d" d="M80 20h10v10H80Z"/></svg>